<?xml version="1.0" standalone="no"?>
<!DOCTYPE svg PUBLIC "-//W3C//DTD SVG 20010904//EN"
 "http://www.w3.org/TR/2001/REC-SVG-20010904/DTD/svg10.dtd">
<svg version="1.0" xmlns="http://www.w3.org/2000/svg"
 width="208.000000pt" height="208.000000pt" viewBox="0 0 208.000000 208.000000"
 preserveAspectRatio="xMidYMid meet">

<g transform="translate(0.000000,208.000000) scale(0.100000,-0.100000)"
fill="#000000" stroke="none">
<path d="M845 1901 c-31 -19 -205 -287 -205 -315 0 -19 33 -44 167 -127 131
-81 133 -81 193 12 l39 61 36 -72 c20 -40 35 -73 33 -75 -2 -1 -18 -10 -36
-19 -81 -41 -88 -85 -18 -110 175 -64 375 -122 394 -115 17 7 33 46 88 215 49
152 64 211 57 223 -15 24 -57 25 -104 0 -24 -12 -45 -18 -47 -13 -1 5 -42 86
-90 179 l-87 170 -195 3 c-176 2 -198 0 -225 -17z"/>
<path d="M524 1321 c-104 -26 -195 -51 -202 -55 -7 -4 -12 -20 -12 -36 0 -23
8 -33 48 -56 26 -15 48 -28 50 -29 2 -2 -39 -72 -91 -156 -129 -211 -122 -194
-98 -233 28 -44 27 -46 -15 -46 -19 0 -43 -4 -53 -9 -10 -6 -38 -11 -64 -12
-40 -2 -45 -5 -36 -20 5 -9 24 -27 43 -38 78 -49 126 -127 126 -208 0 -18 7
-52 17 -75 32 -84 90 -126 193 -139 94 -11 141 -38 197 -110 66 -84 93 -99
186 -99 56 0 88 6 124 22 62 28 144 27 206 -1 34 -15 66 -21 122 -21 92 0 133
22 184 97 43 63 82 89 151 103 119 23 143 31 177 57 46 35 71 87 83 173 6 39
16 83 24 98 16 30 67 80 108 105 31 19 73 87 83 135 l7 32 -80 0 c-73 0 -145
17 -143 33 2 12 -58 120 -117 212 -41 63 -65 91 -80 93 -14 2 -61 -20 -125
-59 -130 -79 -167 -106 -167 -125 0 -8 18 -44 39 -79 l40 -65 -85 0 -84 0 0
60 c0 55 -2 61 -25 72 -26 11 -47 -6 -207 -163 -13 -13 -31 -16 -80 -13 -114
7 -140 11 -147 22 -4 6 -44 12 -93 14 l-86 3 39 65 c21 36 43 66 48 68 6 2 30
-9 55 -23 48 -28 79 -27 90 2 7 18 -77 382 -97 423 -8 16 -22 26 -37 27 -14 1
-111 -20 -216 -46z m329 -1140 c5 -5 5 -16 0 -25 -8 -14 -13 -13 -46 9 -20 14
-37 28 -37 32 0 9 72 -5 83 -16z"/>
<path d="M2040 851 c-24 -7 -24 -8 6 -12 24 -4 31 -2 27 8 -3 7 -6 13 -7 12 0
-1 -12 -4 -26 -8z"/>
</g>
</svg>
